inDegrees=no
num_controls=7
num_derivatives=13
num_iterations=165
num_multipliers=7
num_parameters=0
num_slacks=7
num_states=26
objective=5.658390
objective_accelerations=0.847605
objective_balance=0.056735
objective_effort=0.469284
objective_height=4.201566
objective_ligament=0.083199
solver_duration=1788.603200
status=Solve_Succeeded
success=true
DataType=double
version=3
OpenSimVersion=4.4-2022-07-23-0e9fedc
endheader
time	/jointset/ground_pelvis/pelvis_tilt/value	/jointset/ground_pelvis/pelvis_tx/value	/jointset/ground_pelvis/pelvis_ty/value	/jointset/hip_l/hip_flexion_l/value	/jointset/hip_l/hip_adduction_l/value	/jointset/hip_l/hip_rotation_l/value	/jointset/back/lumbar_extension/value	/jointset/patellofemoral_l/patellar_flexion_l/value	/jointset/knee_l/knee_flexion_l/value	/jointset/knee_l/knee_adduction_l/value	/jointset/knee_l/knee_rotation_l/value	/jointset/ankle_l/ankle_angle_l/value	/jointset/subtalar_l/subtalar_angle_l/value	/jointset/ground_pelvis/pelvis_tilt/speed	/jointset/ground_pelvis/pelvis_tx/speed	/jointset/ground_pelvis/pelvis_ty/speed	/jointset/hip_l/hip_flexion_l/speed	/jointset/hip_l/hip_adduction_l/speed	/jointset/hip_l/hip_rotation_l/speed	/jointset/back/lumbar_extension/speed	/jointset/patellofemoral_l/patellar_flexion_l/speed	/jointset/knee_l/knee_flexion_l/speed	/jointset/knee_l/knee_adduction_l/speed	/jointset/knee_l/knee_rotation_l/speed	/jointset/ankle_l/ankle_angle_l/speed	/jointset/subtalar_l/subtalar_angle_l/speed	/forceset/tau_hip_flexion_l	/forceset/tau_hip_adduction_l	/forceset/tau_hip_rotation_l	/forceset/tau_knee_flexion_l	/forceset/tau_ankle_angle_l	/forceset/tau_subtalar_angle_l	/forceset/tau_lumbar_extension	lambda_cid13_p0	lambda_cid13_p1	lambda_cid13_p2	lambda_cid13_p3	lambda_cid13_p4	lambda_cid13_p5	lambda_cid14_p0	/jointset/ground_pelvis/pelvis_tilt/accel	/jointset/ground_pelvis/pelvis_tx/accel	/jointset/ground_pelvis/pelvis_ty/accel	/jointset/hip_l/hip_flexion_l/accel	/jointset/hip_l/hip_adduction_l/accel	/jointset/hip_l/hip_rotation_l/accel	/jointset/back/lumbar_extension/accel	/jointset/patellofemoral_l/patellar_flexion_l/accel	/jointset/knee_l/knee_flexion_l/accel	/jointset/knee_l/knee_adduction_l/accel	/jointset/knee_l/knee_rotation_l/accel	/jointset/ankle_l/ankle_angle_l/accel	/jointset/subtalar_l/subtalar_angle_l/accel	gamma_cid13_p0	gamma_cid13_p1	gamma_cid13_p2	gamma_cid13_p3	gamma_cid13_p4	gamma_cid13_p5	gamma_cid14_p0
0	-0.1559310216788738	0.05699719810702328	0.897858699711202	0.3774920279260975	-0.2611287327846645	-0.2384935436463684	-0.0126506700172305	0.03223623128433579	0.03223623128433527	-0.1745329251994329	0.1416322426174903	-0.04231376238535053	-0.01165618255815237	0	0	0	0	0	0	0	0	0	0	0	0	0	0.1422841771105621	-0.08209284960877182	-0.04337270780234382	-0.2916509872163965	0.2926027200618836	-0.02527968952495237	-0.08980447910235909	53.4726873375947	-2.513051025339985	4.714929597304951	-7.028278531755114	-580.7031818311177	-79.7371270541319	-38.08671167986243	-3.185039569292088	-2.165253873276121	-1.167838121578289	14.51728608489896	-0.539435025313578	3.780932341427365	-6.739223061771004	14.35964780580808	14.35964780580346	2.350683041745985	1.064180564145936	3.779052534015302	0.2823507274070534	-9.211911742437934e-09	3.238858474017988e-07	1.856997462691977e-08	6.942812895714621e-09	1.650175041467654e-07	3.515838500500891e-08	2.394861725588481e-08
0.01	-0.1560831166312571	0.05689068640228961	0.8978017785939236	0.3781997445131235	-0.2611553001137236	-0.2383035366904133	-0.01298831218789567	0.03293942482552917	0.03293942482552132	-0.1744175794362728	0.1416797072471745	-0.04212872093031874	-0.01164257189827745	-0.03024803072784616	-0.0211629730163495	-0.01134614592308689	0.1408236806641361	-0.005266344263684692	0.03781917452623894	-0.06703498341428631	0.1400070790702653	0.1400070790702659	0.02298573440438029	0.009443316854054801	0.03690205227772946	0.002744124792608448	0.1369398223678779	-0.08522714976296185	-0.04250957215747032	-0.2867609318774721	0.2862598408778106	-0.01906937006439641	-0.08514874335041517	51.62124295447111	-4.794385608212808	4.973968059613119	-6.775703583600748	-582.1651025515922	-83.90483491665765	-38.10785636724627	-2.919048974199841	-2.070912437698786	-1.112258194286314	13.75695823953677	-0.5132267936753239	3.755088833887624	-6.611618373427556	13.72648879288636	13.72648879288939	2.259861550229551	0.8769838551163003	3.629849157957443	0.2736892633096445	-4.486921687837231e-08	3.740682953684158e-07	1.057843410776088e-07	5.74913230422077e-08	-7.328061706732421e-08	6.228102251007776e-09	2.189847869412204e-08
0.02	-0.1565325647208543	0.05657672628301567	0.8976325449440916	0.3802941077432641	-0.2612331294187746	-0.2377408022240603	-0.01398150067113808	0.0350237393244602	0.03502373932446026	-0.1740749009797104	0.1418201203672355	-0.04157784543584838	-0.01160087080885211	-0.05947062744243537	-0.04148968290805425	-0.02246250651071535	0.2773293286229166	-0.0102523951985435	0.07454550207909405	-0.1311092625153766	0.2762241915505537	0.2762241915505782	0.04546518522657735	0.01858969807134976	0.07316680788768434	0.005618085910091469	0.1315954676251757	-0.08836144991716112	-0.04164643651250036	-0.2818708765386007	0.2799169616937164	-0.0128590506038556	-0.08049300759846383	49.89118009291492	-7.092501723035029	5.230578700730143	-6.779253791454827	-581.8210662273932	-87.88499997674911	-38.170172397226	-2.979952766640695	-1.998001248347171	-1.121881054486606	13.65367954382783	-0.4833763595484138	3.562362946750599	-6.147082199131787	13.60165448781271	13.60165448781272	2.249426325309319	1.004793436793971	3.651593200460382	0.3083179923819553	-8.052652201430668e-08	4.242507433350329e-07	1.929987075282979e-07	1.080398331887008e-07	-3.115787382814138e-07	-2.270218050299336e-08	1.984834013235927e-08
0.03	-0.1572694508207643	0.05606341355106938	0.8973528028453288	0.3837329892745379	-0.2613591233270491	-0.2368172579040532	-0.01560051692360318	0.03845176443436413	0.03845176443436538	-0.1735098477878567	0.1420512307677512	-0.04066777755504234	-0.01152959317176504	-0.08772318508760354	-0.06105763344786432	-0.03348763160039896	0.4097516053010682	-0.01488274709527293	0.1099655916893872	-0.1922372214975031	0.4087421473524959	0.4087421473524921	0.06744926336224064	0.02756077382704505	0.1086974275965095	0.008661483288403509	0.1249808070599687	-0.08347652114873488	-0.04054988247903279	-0.2755246446035093	0.2723381347273297	-0.01356089048560432	-0.07508806534125935	47.47734805019999	-6.472449005834719	5.254401162472238	-5.811084604205035	-581.3649345913788	-85.60447673409656	-38.27124708074526	-2.720396625175906	-1.91888563958995	-1.093149268563218	12.93218841567819	-0.4434060778603749	3.502151116758566	-6.027137775733356	12.98105970329705	12.9810597032929	2.15856379895139	0.8325174419234161	3.481399507782513	0.3058683348886746	-1.00262733673833e-07	4.037888931132313e-07	2.512411596306295e-07	1.365496055238784e-07	-4.713071364248872e-07	-5.188567286267864e-08	1.439475897688228e-08
0.04	-0.1582833603694726	0.05535788257716662	0.8969627452891982	0.3884752309097697	-0.2615295290489159	-0.235545448858227	-0.01781710977148546	0.04318580781767335	0.04318580781767348	-0.1727278207663985	0.1423699024852137	-0.03940688284681038	-0.01142717801602833	-0.1148753172016093	-0.07993333129934933	-0.04452559798427237	0.5380013494139957	-0.01913475791701099	0.1441984472432764	-0.25062458159884	0.5374278462309215	0.5374278462308929	0.08885995114816538	0.03610196146138504	0.1433321733728912	0.01184558964002878	0.1183661464948036	-0.07859159238030339	-0.03945332844557578	-0.2691784126683963	0.26475930776095	-0.01426273036734611	-0.06968312308402591	45.17326509740447	-5.864789758507783	5.272409744441262	-5.081622217863925	-579.2867493698502	-83.14436143672235	-38.40811527504135	-2.759867660408208	-1.859550710682157	-1.124449313324565	12.819173030783	-0.4077081445501522	3.324916135469803	-5.598962422973854	12.83520310310943	12.83520310311012	2.134748255361593	0.9188158125229119	3.472418413971672	0.3364597870445919	-1.196706753647735e-07	3.818704594236273e-07	3.088862526742322e-07	1.646049708938742e-07	-6.294155402782447e-07	-8.107438603897597e-08	8.871003747308074e-09
0.05	-0.1595639999543619	0.05446722495153818	0.8964618277938837	0.3944802301583203	-0.2617404149564132	-0.233938021495278	-0.02060328587239781	0.04918847089631086	0.04918847089631107	-0.1717345237502658	0.1427725952064679	-0.03780364084577033	-0.01129198693970351	-0.1410767730059193	-0.09806193035778341	-0.05568870914502878	0.662295632196056	-0.0229671840357247	0.1770834314662303	-0.3061600413408267	0.6624675284908615	0.6624675284908128	0.1096947203386568	0.04434541225347167	0.1771868266226787	0.01523001827734311	0.1120149973168091	-0.07646724251606103	-0.03848928240141141	-0.2646120663599475	0.2589237426831604	-0.01246946961587319	-0.06442445451258794	43.51821269779191	-6.362852042292176	5.362135297833697	-4.916138484759207	-577.4618094112027	-82.93621986195275	-38.5770329956302	-2.523904523445354	-1.769041835424566	-1.11699038816632	12.12911833824089	-0.3598110482485912	3.239713308073958	-5.463248163394957	12.24276290701716	12.24276290701375	2.042229408598211	0.7634051923054945	3.322582928520206	0.3449485916147084	-1.271203437481102e-07	2.822948629258065e-07	3.365352767161524e-07	1.750624177603173e-07	-7.21151465016952e-07	-1.148260866348141e-07	-9.007105197626183e-10
0.06	-0.1611013780938966	0.05339937586892531	0.8958483295128185	0.401707084721957	-0.2619873853656407	-0.2320078595416268	-0.023931298653447	0.05642241322146434	0.05642241322146484	-0.1705360014106892	0.1432549815315937	-0.03586573348262488	-0.01112184873909763	-0.1662230281303436	-0.1153716226962321	-0.06704175513441375	0.7823724124310516	-0.02635165826310401	0.2087453653838149	-0.3589919176261681	0.7836836955340371	0.783683695533965	0.1299050158373589	0.05204068223571656	0.2102652457939823	0.0188350144962509	0.1056638481388314	-0.07434289265181651	-0.03752523635724522	-0.260045720051493	0.2530881776053724	-0.01067620886439779	-0.05916578594113748	41.95856974566147	-6.872552904142131	5.447931558218492	-4.965268544481817	-574.2325106829095	-82.57020716982213	-38.77380854536254	-2.54882752443106	-1.695769366685077	-1.162436279050276	11.97567252137	-0.318117766283283	3.080306074395933	-5.058245731644807	12.07050005975655	12.07050005975655	2.009853517003717	0.8091796505545643	3.317171598274891	0.3805733033632754	-1.340665058869161e-07	1.794494911518502e-07	3.629213083790543e-07	1.84778899637137e-07	-8.100927590560949e-07	-1.487699130167382e-07	-1.085128621999105e-08
0.07000000000000001	-0.1628856369369588	0.05216246438393873	0.895119981742254	0.4101150833853795	-0.2622658799348562	-0.2297681241099103	-0.0277735982586517	0.0648505026188578	0.06485050261885669	-0.1691384666822875	0.1438126075674997	-0.03360068223051807	-0.01091442962649888	-0.1904538514856957	-0.1318755678678982	-0.07868247034696743	0.898537775689468	-0.02926421371543917	0.238986927021173	-0.4090352879080636	0.9013007418026273	0.9013007418026031	0.1494918668016948	0.05938504951049076	0.2426067848722044	0.02269083547958746	0.09897154503095487	-0.07129679365465923	-0.03655233787205085	-0.2557731171307212	0.2473120037048735	-0.009423554140988446	-0.0536979746856208	40.37150454705885	-7.152231913945434	5.507978696777432	-4.848983359977509	-571.3091756523604	-81.63861202204026	-38.99367610098227	-2.333964513335629	-1.607404053856669	-1.173252944261956	11.33353162931212	-0.265425747421578	2.963807258955833	-4.912475350463588	11.51229287997533	11.51229287998253	1.916659842223139	0.682093101098179	3.171913614155138	0.3943225083633164	-1.33050117498428e-07	7.368108191729837e-09	3.826882906518845e-07	1.782146844951222e-07	-8.444304215023517e-07	-2.014529551047098e-07	-2.680156965054328e-08
0.08	-0.1649069549680259	0.05076457405494566	0.8942735540591831	0.4196640483616331	-0.2625710203211375	-0.227232427851711	-0.03210335010147608	0.07443575967285088	0.07443575967284895	-0.1675483516530306	0.1444406828431852	-0.03101636187731724	-0.01066720510155791	-0.2136348657309788	-0.1475673914975316	-0.09065773763570179	1.010565674997272	-0.03168082167629412	0.2679375306805347	-0.4564823651500255	1.015117226853821	1.015117226853844	0.1684210760090143	0.06613053019163842	0.2741190660127973	0.02679609696470234	0.09227924192309027	-0.06825069465749682	-0.03557943938685776	-0.2515005142099419	0.2415358298043784	-0.008170899417573183	-0.04823016343009838	38.86564676707656	-7.440360969232493	5.562786075557663	-4.92194406111416	-567.1999985787719	-80.56974947671789	-39.23158278313327	-2.338865702417249	-1.533345058278528	-1.229346694286414	11.14817973124744	-0.2189282679872545	2.822114478796666	-4.538987123658091	11.31038781627718	11.31038781627718	1.878325165600409	0.6894023318292596	3.15132001074907	0.4304614037189302	-1.31520016172695e-07	-1.691801141997557e-07	4.02028237480194e-07	1.706001018035051e-07	-8.752452690071317e-07	-2.553449788511359e-07	-4.313893099918088e-08
